Patient4_TMGait_0pt3_02_right_29_GRF.mot
version=1
nRows=78
nColumns=19
inDegrees=no
endheader
time	F1x	F1y	F1z	M1x	M1y	M1z	F2x	F2y	F2z	M2x	M2y	M2z	EC1x	EC1y	EC1z	EC2x	EC2y	EC2z
55.76	-21.2	762.6257	57.1422	-267.1954	-62.9804	794.5223	1.3415	15.9969	-5.7187	5.6563	5.5379	18.4195	-0.0592	0.0182	-0.0073	-0.0462	0.0165	0.9585
55.7801	-20.5993	775.7039	56.9344	-271.7238	-62.8023	805.6505	0.63148	11.5236	-3.9954	4.1103	3.959	13.156	-0.0592	0.0182	-0.0073	-0.0462	0.0165	0.9585
55.8003	-19.9135	791.515	56.6743	-277.3232	-62.4312	818.6368	0.12603	7.6413	-2.491	2.7629	2.5467	8.6136	-0.0592	0.0182	-0.0073	-0.0462	0.0165	0.9585
55.8204	-19.065	809.3777	56.305	-283.7712	-61.7524	832.77	-0.19794	4.6331	-1.319	1.7157	1.4275	5.1088	-0.0592	0.0182	-0.0073	-0.0462	0.0165	0.9585
55.8406	-17.9582	828.2218	55.7871	-290.6761	-60.6904	847.0378	-0.3806	2.526	-0.49142	0.98033	0.62837	2.6646	-0.0592	0.0182	-0.0073	-0.0462	0.0165	0.9585
55.8607	-16.5271	846.4011	55.1248	-297.4121	-59.2368	859.9409	-0.46463	1.2035	0.032381	0.51771	0.12022	1.1387	-0.0592	0.0182	-0.0073	-0.0462	0.0165	0.9585
55.8809	-14.7455	861.6635	54.3677	-303.1222	-57.4472	869.4482	-0.48731	0.48069	0.31787	0.2639	-0.15707	0.31675	-0.0592	0.0182	-0.0073	-0.0462	0.0165	0.9585
55.901	-12.6361	871.4465	53.5787	-306.8404	-55.4137	873.2649	-0.47612	0.15219	0.43504	0.14681	-0.26952	-0.035429	-0.0592	0.0182	-0.0073	-0.0462	0.0165	0.9585
55.9211	-10.2445	873.4745	52.7902	-307.7233	-53.2116	869.3684	-0.45195	0.020969	0.44725	0.095243	-0.27749	-0.14833	-0.0592	0.0182	-0.0073	-0.0462	0.0165	0.9585
55.9413	-7.5756	866.4561	51.9696	-305.3071	-50.8416	856.6398	-0.43052	-0.089897	0.40523	0.043602	-0.23134	-0.22667	-0.0592	0.0182	-0.0073	-0.0462	0.0165	0.9585
55.9614	-4.5772	850.5246	51.0355	-299.6618	-48.2351	835.2763	-0.42085	-0.33333	0.34152	-0.065054	-0.16425	-0.43912	-0.0592	0.0182	-0.0073	-0.0462	0.0165	0.9585
55.9816	-1.1784	827.2648	49.921	-291.3857	-45.3267	806.8228	-0.42396	-0.83206	0.27818	-0.27741	-0.09826	-0.91944	-0.0592	0.0182	-0.0073	-0.0462	0.0165	0.9585
56.0017	2.6747	799.422	48.6212	-281.488	-42.1104	773.9076	-0.43119	-1.6673	0.23192	-0.62379	-0.053039	-1.7587	-0.0592	0.0182	-0.0073	-0.0462	0.0165	0.9585
56.0219	6.9999	770.4091	47.2085	-271.207	-38.6568	739.7804	-0.4258	-2.8643	0.21598	-1.1124	-0.047564	-2.9898	-0.0592	0.0182	-0.0073	-0.0462	0.0165	0.9585
56.042	11.7834	743.7302	45.8145	-261.7995	-35.0908	707.7709	-0.38555	-4.363	0.241	-1.7178	-0.10021	-4.5569	-0.0592	0.0182	-0.0073	-0.0462	0.0165	0.9585
56.0621	16.9769	722.3864	44.6008	-254.326	-31.5708	680.7285	-0.28091	-5.9701	0.31555	-2.3614	-0.22988	-6.2607	-0.0592	0.0182	-0.0073	-0.0462	0.0165	0.9585
56.0823	22.4786	708.3283	43.736	-249.46	-28.2794	660.5233	-0.074265	-7.3032	0.4455	-2.8895	-0.45652	-7.7005	-0.0592	0.0182	-0.0073	-0.0462	0.0165	0.9585
56.1024	28.1432	702.1015	43.3653	-247.3663	-25.3965	647.7369	0.27585	-7.7335	0.6304	-3.0507	-0.79497	-8.2089	-0.0592	0.0182	-0.0073	-0.0462	0.0165	0.9585
56.1226	33.767	702.7623	43.5754	-247.675	-23.0717	641.6001	0.80701	-6.3368	0.85724	-2.4769	-1.2438	-6.793	-0.0592	0.0182	-0.0073	-0.0462	0.0165	0.9585
56.1427	39.0667	708.0359	44.3655	-249.5456	-21.4091	640.1637	1.5393	-1.8841	1.0965	-0.67901	-1.7745	-2.138	-0.0592	0.0182	-0.0073	-0.0462	0.0165	0.9585
56.1629	43.7209	714.7365	45.6345	-251.8242	-20.4422	640.672	2.4566	7.0969	1.2945	2.9272	-2.3169	7.3311	-0.0592	0.0182	-0.0073	-0.0462	0.0165	0.9585
56.183	47.4119	719.3088	47.1787	-253.2386	-20.1188	640.05	3.4791	22.1461	1.3628	8.9527	-2.738	23.2677	-0.0592	0.0182	-0.0073	-0.0462	0.0165	0.9585
56.2031	49.8523	718.3443	48.71	-252.5851	-20.3081	635.3617	4.4207	44.5387	1.17	17.9016	-2.8145	47.0483	-0.0592	0.0182	-0.0073	-0.0462	0.0165	0.9585
56.2233	50.8275	709.0569	49.8919	-248.898	-20.815	624.2107	4.8317	74.8413	0.54637	29.9934	-2.1853	79.2944	-0.0592	0.0182	-0.0073	-0.0462	0.0165	0.9585
56.2434	50.2446	689.7365	50.3882	-241.6074	-21.4005	605.124	3.9505	112.5011	-0.71349	44.997	-0.33932	119.4396	-0.0592	0.0182	-0.0073	-0.0462	0.0165	0.9585
56.2636	48.1847	660.0924	49.9335	-230.6546	-21.8221	577.8245	1.4181	155.7879	-2.8362	62.2014	3.0944	165.6458	-0.0592	0.0182	-0.0073	-0.0462	0.0165	0.9585
56.2837	44.9494	621.3662	48.4139	-216.5254	-21.8802	543.2984	-2.4191	202.093	-5.9188	80.5491	8.0616	215.0545	-0.0592	0.0182	-0.0073	-0.0462	0.0165	0.9585
56.3039	41.0333	576.138	45.8949	-200.1717	-21.4426	503.6208	-6.9937	249.4511	-9.7039	99.257	14.0425	265.4569	-0.0592	0.0182	-0.0073	-0.0462	0.0165	0.9585
56.324	36.9895	527.59	42.5812	-182.7481	-20.4575	461.3541	-11.8195	297.1366	-13.7525	118.0472	20.3714	315.9947	-0.0592	0.0182	-0.0073	-0.0462	0.0165	0.9585
56.3441	33.23	478.4381	38.7216	-165.2361	-18.9549	418.6784	-16.4429	344.5946	-17.6349	136.708	26.4139	366.0063	-0.0592	0.0182	-0.0073	-0.0462	0.0165	0.9585
56.3643	29.909	430.2778	34.5511	-148.2106	-17.0446	376.862	-20.4667	390.9149	-21.0698	154.869	31.7154	414.4678	-0.0592	0.0182	-0.0073	-0.0462	0.0165	0.9585
56.3844	26.9539	383.5555	30.2834	-131.828	-14.9023	336.24	-23.6095	435.0153	-24.0095	172.067	36.1125	460.1975	-0.0592	0.0182	-0.0073	-0.0462	0.0165	0.9585
56.4046	24.1755	338.016	26.083	-115.9857	-12.7122	296.5867	-25.7477	476.048	-26.635	187.9155	39.7416	502.2915	-0.0592	0.0182	-0.0073	-0.0462	0.0165	0.9585
56.4247	21.3592	293.2788	22.0631	-100.5262	-10.6324	257.5865	-26.9193	513.7761	-29.2146	202.275	42.896	540.5101	-0.0592	0.0182	-0.0073	-0.0462	0.0165	0.9585
56.4449	18.3355	249.2332	18.3083	-85.3809	-8.7883	219.1596	-27.2412	548.6193	-31.9325	215.2995	45.822	575.3089	-0.0592	0.0182	-0.0073	-0.0462	0.0165	0.9585
56.465	15.0353	206.2405	14.8892	-70.6429	-7.2621	181.6271	-26.8477	581.303	-34.7926	227.3125	48.5945	607.4646	-0.0592	0.0182	-0.0073	-0.0462	0.0165	0.9585
56.4851	11.5069	165.173	11.8648	-56.5847	-6.0903	145.7465	-25.8925	612.3423	-37.6304	238.5985	51.128	637.5475	-0.0592	0.0182	-0.0073	-0.0462	0.0165	0.9585
56.5053	7.917	127.2607	9.2726	-43.6096	-5.2538	112.5776	-24.5247	641.6694	-40.1704	249.2433	53.221	665.5496	-0.0592	0.0182	-0.0073	-0.0462	0.0165	0.9585
56.5254	4.5344	93.7319	7.1259	-32.1306	-4.679	83.1785	-22.8684	668.5625	-42.0882	259.0855	54.6095	690.8054	-0.0592	0.0182	-0.0073	-0.0462	0.0165	0.9585
56.5456	1.6284	65.4218	5.3976	-22.4329	-4.2597	58.2775	-21.0301	691.8801	-43.09	267.7868	55.0458	712.2272	-0.0592	0.0182	-0.0073	-0.0462	0.0165	0.9585
56.5657	-0.61227	42.6115	4.0198	-14.6145	-3.8799	38.1369	-19.1001	710.4685	-43.0255	274.967	54.4106	728.7178	-0.0592	0.0182	-0.0073	-0.0462	0.0165	0.9585
56.5859	-2.0829	25.1244	2.9138	-8.6164	-3.4423	22.6274	-17.1627	723.5334	-41.9663	280.3303	52.7939	739.5456	-0.0592	0.0182	-0.0073	-0.0462	0.0165	0.9585
56.606	-2.7818	12.4645	2.019	-4.2709	-2.9036	11.3432	-15.3213	730.8723	-40.1805	283.7536	50.4805	744.5753	-0.0592	0.0182	-0.0073	-0.0462	0.0165	0.9585
56.6261	-2.8389	3.9552	1.3081	-1.3475	-2.2919	3.7097	-13.7115	733.0597	-38.0447	285.3728	47.8728	744.4553	-0.0592	0.0182	-0.0073	-0.0462	0.0165	0.9585
56.6463	-2.5093	-1.1695	0.78148	0.41631	-1.7035	-0.92821	-12.5074	731.524	-35.9487	285.6309	45.4024	740.6922	-0.0592	0.0182	-0.0073	-0.0462	0.0165	0.9585
56.6664	-2.0204	-3.7569	0.42679	1.311	-1.2102	-3.3008	-11.8961	728.3718	-34.2348	285.2348	43.466	735.4549	-0.0592	0.0182	-0.0073	-0.0462	0.0165	0.9585
56.6866	-1.5184	-4.6169	0.21252	1.6142	-0.8339	-4.1201	-12.0193	726.1289	-33.1311	285.0835	42.3429	731.2809	-0.0592	0.0182	-0.0073	-0.0462	0.0165	0.9585
56.7067	-1.0825	-4.4266	0.10146	1.5572	-0.56931	-3.9842	-12.9132	727.4185	-32.7007	286.1558	42.1183	730.739	-0.0592	0.0182	-0.0073	-0.0462	0.0165	0.9585
56.7269	-0.74192	-3.6946	0.059239	1.3142	-0.39802	-3.3449	-14.4973	734.5232	-32.8659	289.3312	42.6973	736.0099	-0.0592	0.0182	-0.0073	-0.0462	0.0165	0.9585
56.747	-0.49589	-2.7697	0.057227	1.0039	-0.29655	-2.517	-16.5821	748.8681	-33.4773	295.1692	43.8696	748.3991	-0.0592	0.0182	-0.0073	-0.0462	0.0165	0.9585
56.7671	-0.32984	-1.8658	0.07296	0.69964	-0.24149	-1.697	-18.9028	770.5049	-34.3767	303.693	45.3812	767.8506	-0.0592	0.0182	-0.0073	-0.0462	0.0165	0.9585
56.7873	-0.22723	-1.0961	0.091883	0.44138	-0.21618	-0.99175	-21.1607	797.8206	-35.4252	314.2724	46.9745	792.6784	-0.0592	0.0182	-0.0073	-0.0462	0.0165	0.9585
56.8074	-0.17536	-0.50517	0.10788	0.24407	-0.21148	-0.45033	-23.0814	827.7238	-36.498	325.6994	48.4048	819.7756	-0.0592	0.0182	-0.0073	-0.0462	0.0165	0.9585
56.8276	-0.16531	-0.095372	0.12122	0.10774	-0.22399	-0.073952	-24.4535	856.2682	-37.4707	336.4341	49.4505	845.2376	-0.0592	0.0182	-0.0073	-0.0462	0.0165	0.9585
56.8477	-0.18876	0.14654	0.13731	0.027567	-0.25475	0.15309	-25.1016	879.4226	-38.2269	344.9129	49.9178	865.0987	-0.0592	0.0182	-0.0073	-0.0462	0.0165	0.9585
56.8679	-0.23585	0.23543	0.16311	-0.0015108	-0.306	0.24357	-24.8713	893.8032	-38.6719	349.8409	49.6524	876.0521	-0.0592	0.0182	-0.0073	-0.0462	0.0165	0.9585
56.888	-0.30307	0.17783	0.20332	0.017425	-0.37848	0.20025	-23.679	897.2779	-38.7362	350.4299	48.5656	876.0563	-0.0592	0.0182	-0.0073	-0.0462	0.0165	0.9585
56.9081	-0.38633	-0.031588	0.25652	0.086272	-0.46716	0.0093098	-21.5326	889.3468	-38.3713	346.5447	46.635	864.6984	-0.0592	0.0182	-0.0073	-0.0462	0.0165	0.9585
56.9283	-0.47608	-0.4069	0.3159	0.2135	-0.5631	-0.35908	-18.5107	871.1736	-37.5606	338.7033	43.9038	843.1995	-0.0592	0.0182	-0.0073	-0.0462	0.0165	0.9585
56.9484	-0.55959	-0.96673	0.37185	0.4102	-0.65248	-0.93624	-14.752	845.269	-36.3428	327.9364	40.4954	814.0871	-0.0592	0.0182	-0.0073	-0.0462	0.0165	0.9585
56.9686	-0.61755	-1.7192	0.41198	0.68025	-0.71322	-1.732	-10.4359	814.9485	-34.8285	315.5645	36.6151	780.6507	-0.0592	0.0182	-0.0073	-0.0462	0.0165	0.9585
56.9887	-0.6197	-2.6395	0.42039	1.0129	-0.71565	-2.7189	-5.7607	783.7199	-33.2011	302.9567	32.5399	746.3362	-0.0592	0.0182	-0.0073	-0.0462	0.0165	0.9585
57.0089	-0.52379	-3.6385	0.37667	1.3714	-0.62326	-3.801	-0.93764	754.7611	-31.6761	291.335	28.5744	714.2457	-0.0592	0.0182	-0.0073	-0.0462	0.0165	0.9585
57.029	-0.272	-4.5306	0.25421	1.6826	-0.38753	-4.7812	3.8287	730.5483	-30.4529	281.6421	24.9943	686.7891	-0.0592	0.0182	-0.0073	-0.0462	0.0165	0.9585
57.0491	0.20389	-4.9934	0.022691	1.8252	0.04986	-5.3255	8.3621	712.6233	-29.6773	274.4559	22.0036	665.4595	-0.0592	0.0182	-0.0073	-0.0462	0.0165	0.9585
57.0693	0.97172	-4.542	-0.34752	1.6188	0.74683	-4.9258	12.5285	701.5154	-29.4258	269.9618	19.7191	650.7675	-0.0592	0.0182	-0.0073	-0.0462	0.0165	0.9585
57.0894	2.0829	-2.5132	-0.87808	0.81901	1.7453	-2.888	16.2337	696.799	-29.7129	267.9759	18.1783	642.3153	-0.0592	0.0182	-0.0073	-0.0462	0.0165	0.9585
57.1096	3.5411	1.9133	-1.5656	-0.87341	3.0407	1.6485	19.408	697.2583	-30.5041	268.0094	17.3597	638.9719	-0.0592	0.0182	-0.0073	-0.0462	0.0165	0.9585
57.1297	5.2604	9.6342	-2.3605	-3.7835	4.5438	9.6327	21.9853	701.126	-31.7138	269.3618	17.1947	639.1103	-0.0592	0.0182	-0.0073	-0.0462	0.0165	0.9585
57.1499	7.0096	21.451	-3.1419	-8.1978	6.0352	21.9356	23.9043	706.3267	-33.2028	271.2182	17.5689	640.8323	-0.0592	0.0182	-0.0073	-0.0462	0.0165	0.9585
57.17	8.3579	37.7886	-3.6851	-14.2583	7.1109	39.0565	25.1496	710.7273	-34.7935	272.7479	18.3239	642.1852	-0.0592	0.0182	-0.0073	-0.0462	0.0165	0.9585
57.1901	8.7225	58.4268	-3.6696	-21.8601	7.2095	60.8351	25.7781	712.3546	-36.2989	273.1891	19.2692	641.3508	-0.0592	0.0182	-0.0073	-0.0462	0.0165	0.9585
57.2103	7.826	82.6666	-2.77	-30.7146	5.8747	86.599	25.9076	709.5894	-37.5492	271.9231	20.2101	636.8321	-0.0592	0.0182	-0.0073	-0.0462	0.0165	0.9585
57.2304	5.8213	109.6024	-0.74547	-40.4599	2.8973	115.4121	25.6684	701.2728	-38.4102	268.5139	20.9823	627.5552	-0.0592	0.0182	-0.0073	-0.0462	0.0165	0.9585
57.2506	2.9974	138.113	2.3639	-50.6817	-1.5718	146.0496	25.1622	686.7272	-38.7828	262.7141	21.4667	612.8943	-0.0592	0.0182	-0.0073	-0.0462	0.0165	0.9585
57.2707	-0.25632	166.8646	6.0815	-60.9273	-6.8583	176.9987	24.4691	665.8301	-38.6159	254.4901	21.5937	592.73	-0.0592	0.0182	-0.0073	-0.0462	0.0165	0.9585
57.2909	-3.5192	194.7872	9.8101	-70.8558	-12.1507	206.9984	23.6632	639.1103	-37.925	244.0549	21.3505	567.5259	-0.0592	0.0182	-0.0073	-0.0462	0.0165	0.9585
57.311	-6.5527	221.7637	13.1073	-80.4613	-16.8793	235.838	22.8195	607.7029	-36.7919	231.8489	20.7789	538.2753	-0.0592	0.0182	-0.0073	-0.0462	0.0165	0.9585
